<svg xmlns="http://www.w3.org/2000/svg" viewBox="0 0 165 26" preserveAspectRatio="xMinYMid"><g fill="none" fill-rule="evenodd"><path fill="#000" d="M164.487 12.074V3.466L161.545.043H146.32V.58l-.464-.537h-11.69L133.4.06l-.003 3.495-2.326-2.69-.026-.028a2.529 2.529 0 00-1.838-.796H117.98l.006 4.073 1.068 1.314.002 13.038-2.325-14.997-2.9-3.365h-7.068l-2.268 15.594-1.454-1.755h-2.694l-.006-6.322h1.234V3.408L98.606 0h-7.99v3.33L88.543.926a2.56 2.56 0 00-1.92-.882H74.75V.96L73.92 0h-6.207v1.56L66.403.045 59.206.043v3.71l-.012-.012-2.5-2.895-.053-.057c-.48-.45-1.098-.7-1.747-.7H46.87c-.963 0-1.77.467-2.216 1.195l-.96-1.118H28.467V.95l-.67-.778H15.52v4.06l1.345 1.68-.002 12.767-.475-.002L14.05 3.59 11.15.227H4.08L1.396 18.682H0v3.787l2.94 3.52h14.948v-1.24L18.92 26h7.526v-3.757l-1.288-1.56v-2.642h3.436v-4.255l-1.307-1.59h3.457V11.4l.656.797 1.902-.005-.004 6.49h-1.453v3.757L34.783 26h8.42v-3.756l-1.613-1.95-.004-9.225.93 1.126h1.75l-.01 7.958c0 .704.26 1.37.737 1.875l2.505 3.038.042.046c.47.488 1.085.76 1.73.76.04 0 .08-.002.122-.005h8.02c.02.002.043.002.065.002.68 0 1.32-.28 1.8-.783a2.724 2.724 0 00.735-1.875v-.007l2.097 2.638h6.18v-1.364l1.077 1.364h6.488V23.58l1.892 2.293H89.16c1.274 0 2.334-.955 2.547-2.214l1.826 2.214h11.485v-1.252l1.036 1.244h14.105v-1.26l1.048 1.27h10.54c1.426 0 2.586-1.207 2.587-2.684l2.215 2.683h12.26V18.16l-2.55-3.06v-2.33l-.58-.696h3.13v-.534l.44.535 1.904-.006-.007 6.49h-1.45v3.755l2.937 3.562h8.42V22.12l-1.61-1.95-.005-9.223.926 1.128h4.12zM91.743 5.528c0-.02 0-.042-.002-.063l.003.004v.058zm0 7.32v3.546a2.714 2.714 0 00-.75-1.773c.44-.456.72-1.08.75-1.77z"/><path d="M16.868 3.138h1.298v16.586h-1.298v1.793h5.623v-1.793h-.864v-6.276h3.028v-2.24h-3.028v-8.07h3.46V7.62h1.73V1.346h-9.948M29.844 7.62h1.73V3.14h3.028v16.586h-1.73v1.793h6.487v-1.793h-1.73V3.138h3.027V7.62h2.162V1.346H29.843m25.052-.001h-8.05c-.757 0-1.43.64-1.43 1.424V20.15c0 .785.672 1.365 1.43 1.365h8.05c.757 0 1.332-.58 1.332-1.365V2.77c0-.785-.576-1.425-1.332-1.425zm-2.128 16.008c0 1.004-.376 2.37-1.28 2.37h-1.23c-.884 0-1.382-1.366-1.382-2.37V5.433c0-1.003.46-2.295 1.382-2.295h1.228c.895 0 1.282 1.292 1.282 2.294v11.92zM68.77 3.138h1.298v13.35L65.725 1.345h-5.172v1.793h.865v16.586h-.865v1.793h3.892v-1.793h-.865V6.41l3.97 15.107h4.68V3.137h.866V1.346H68.77m31.142 17.93h-3.46V3.138h1.297V1.345h-6.056v1.793h1.298v16.586h-1.298v1.793h10.38V15.24h-2.162M10.42 1.345H5.13l-2.684 18.38H1.298v1.88l5.622-.008v-1.873H5.435l.796-4.93h3.147l.666 4.93H8.65v1.793h5.623v-1.793h-.954l-2.9-18.38zM6.292 13L7.68 4.56 9.15 13H6.294zM113.1 1.345h-5.286l-2.686 18.38h-1.323v1.88l5.622-.007v-1.874h-1.308l.796-4.93h3.146l.667 4.93h-1.14v1.793h5.623v-1.793h-1.21L113.1 1.344zM108.974 13l1.387-8.44 1.474 8.44h-2.86zm25.539-9.862h1.298v16.586h-.864v1.793h9.948V15.69h-2.163v4.034h-3.46v-7.172h3.03V10.31h-3.03V3.138h3.46V7.62h2.164V1.346h-10.38m-5.296-.001h-9.845v1.793h.865v16.586h-1.297v1.793h10.276c.755 0 1.4-.6 1.4-1.386V2.736c0-.785-.645-1.39-1.4-1.39zm-2.06 16.373c0 .983-.3 2.006-1.285 2.006H123.7V3.35h2.197c.985 0 1.264 1.126 1.264 2.107v12.26zm20.33-16.373V7.62h2.162V3.14h2.595v16.586h-1.298v1.793h6.487v-1.793h-1.73V3.138h3.027V7.62h2.163V1.346M86.12 11.54c1.14 0 1.878-.952 1.884-2.128l.002-6.662c0-.784-.617-1.405-1.375-1.405H76.124v1.793h1.298v16.586h-1.297v1.793h10.51c.756 0 1.375-.618 1.375-1.404l-.003-6.45c-.004-1.177-.744-2.122-1.884-2.122zm-1.346 6.207c0 .98-.478 1.977-1.423 1.977H80.45v-7.216h2.834c.977 0 1.492 1.123 1.492 2.105v3.134zm0-9.38c0 .983-.52 1.943-1.423 1.943H80.45V3.35h2.834c.955 0 1.492 1.126 1.492 2.107v2.91z" fill="#FFEB00"/></g></svg>