<svg xmlns="http://www.w3.org/2000/svg" xmlns:xlink="http://www.w3.org/1999/xlink" width="253" height="33.048" viewBox="0 0 253 33.048">
  <defs>
    <clipPath id="clip-path">
      <rect id="Rectangle_182" data-name="Rectangle 182" width="253" height="33.048" fill="none"/>
    </clipPath>
  </defs>
  <g id="CV-Logo-horizontal-blue-01" clip-path="url(#clip-path)">
    <path id="Path_372" data-name="Path 372" d="M32.723,13.293a16.145,16.145,0,0,0-1.075-3.388A16.524,16.524,0,0,0,0,16.538H0a16.524,16.524,0,1,0,32.723-3.259m-9.729-10.3a14.349,14.349,0,0,1,1.815,1.036c.148.094.291.192.434.3a1.928,1.928,0,0,1,.2.148l.2.148.035.025.493.409.444.385a15.38,15.38,0,0,1,2.544,3.013H24.828a23.176,23.176,0,0,0-1.134-3.861l-.1-.256L23.457,4c-.064-.153-.133-.3-.2-.449a.266.266,0,0,1,0-.054l-.251-.493h0v-.03m1.183,13.561h0a39.8,39.8,0,0,1-.577,6.657H17.259V9.906h6.356a39.862,39.862,0,0,1,.577,6.632m-22.713.74v-.71h0A14.9,14.9,0,0,1,3.008,9.906H7.939A40.9,40.9,0,0,0,7.4,16.538h0A37.644,37.644,0,0,0,7.969,23.2H3.008a14.951,14.951,0,0,1-1.529-5.917m8.669,12.89h0a1.77,1.77,0,0,1-.168-.084H9.9l-.266-.133-.345-.187a2.983,2.983,0,0,1-.271-.158H8.994a.809.809,0,0,1-.143-.079H8.817c-.143-.084-.281-.173-.419-.261a14.542,14.542,0,0,1-3.171-2.742q-.079-.079-.148-.163c-.113-.128-.217-.256-.321-.385l-.306-.4c-.2-.261-.38-.533-.557-.809H3.92L3.9,24.729H8.358c.207.932.454,1.829.735,2.683a20.567,20.567,0,0,0,1.179,2.89h0l-.089-.044m5.6,1.322h0a14.72,14.72,0,0,1-2.776-.4h-.069l-.335-.094c-.6-.321-1.9-2.673-2.8-6.41H15.78Zm0-8.383H9.458a35.011,35.011,0,0,1-.582-5.917v-.71h0a39.345,39.345,0,0,1,.572-6.632H15.78ZM3.851,8.426A13.807,13.807,0,0,1,4.68,7.263c.108-.138.222-.276.335-.409.039-.049.084-.094.128-.143s.113-.133.173-.2L5.6,6.2c.118-.128.247-.256.38-.385l.148-.138c.069-.074.143-.143.217-.212l.143-.128c.148-.133.3-.261.449-.385.074-.064.153-.123.232-.182h0a11.519,11.519,0,0,1,1.356-.957h0c.237-.158.493-.3.725-.434s.493-.261.735-.38.6-.276.907-.4a14.034,14.034,0,0,1,2.081-.671q.587-.138,1.2-.237c.286-.049.577-.084.873-.108l.36-.035h2.1a7.891,7.891,0,0,1,1.016.108l.493.079a14.522,14.522,0,0,1,1.479.335c.592.409,1.948,2.643,2.771,6.366ZM24.384,29.354c-.128.079-.256.158-.394.232h0c-.3.178-.6.34-.912.493-.178.089-.36.173-.542.251s-.365.153-.547.227h0c-.227.089-.459.178-.7.256s-.464.153-.705.217-.493.128-.72.182-.528.113-.789.158-.6.094-.912.128a8.148,8.148,0,0,1-.907.079v-6.9H29.172a15,15,0,0,1-4.788,4.689m7.175-12.821h0A14.892,14.892,0,0,1,30.016,23.2H25.085q.126-.74.222-1.479c.035-.276.059-.552.089-.828s.049-.419.064-.631c.044-.454.074-.917.1-1.371a.374.374,0,0,1,0-.074c.039-.547.079-1.04.079-1.534v-.71h0a40.534,40.534,0,0,0-.552-6.632h4.931a14.9,14.9,0,0,1,1.539,6.6Z" transform="translate(0 -0.019)" fill="#202335"/>
    <path id="Path_373" data-name="Path 373" d="M103.238,27.272a5.286,5.286,0,0,1-3.555,1.179,5.5,5.5,0,0,1-4.32-1.785,7.435,7.435,0,0,1-1.6-5.133V17.469a7.593,7.593,0,0,1,1.6-5.153,5.424,5.424,0,0,1,4.32-1.839,5.168,5.168,0,0,1,3.452,1.05,5.834,5.834,0,0,1,1.79,2.727.039.039,0,0,0,.054,0l4.039-2.14a.039.039,0,0,0,0-.054A10.064,10.064,0,0,0,105.4,7.622a10.414,10.414,0,0,0-5.75-1.479,11.4,11.4,0,0,0-4.546.912A9.4,9.4,0,0,0,91.61,9.649a11.677,11.677,0,0,0-2.229,4.231,19.582,19.582,0,0,0-.774,5.764,18.877,18.877,0,0,0,.774,5.686,11.2,11.2,0,0,0,2.229,4.1A9.29,9.29,0,0,0,95.1,31.9a12.111,12.111,0,0,0,4.581.828,9.961,9.961,0,0,0,5.784-1.6,11.4,11.4,0,0,0,3.7-4.438.044.044,0,0,0,0-.054L105.3,24.353a.039.039,0,0,0-.054,0,6.775,6.775,0,0,1-1.972,2.865" transform="translate(-44.913 -3.11)" fill="#202335"/>
    <rect id="Rectangle_179" data-name="Rectangle 179" width="4.714" height="25.706" transform="translate(67.734 3.491)" fill="#202335"/>
    <rect id="Rectangle_180" data-name="Rectangle 180" width="4.709" height="19.212" transform="translate(78.035 9.981)" fill="#202335"/>
    <path id="Path_374" data-name="Path 374" d="M200.714,19.31a6.317,6.317,0,0,0-3.846,1.124,5.424,5.424,0,0,0-2.041,2.742,5.815,5.815,0,0,0-.626-1.188h0a5.079,5.079,0,0,0-1.578-1.711,5.75,5.75,0,0,0-2.52-.9.059.059,0,0,0-.039,0,5.78,5.78,0,0,0-.927-.069,5.986,5.986,0,0,0-1.435.173c-.148.03-.3.074-.434.113l-.409.153a6.109,6.109,0,0,0-3,2.589V19.758H179.15V38.99h4.709V26.268a2.707,2.707,0,0,1,.311-1.341,2.993,2.993,0,0,1,.824-.957,3.787,3.787,0,0,1,1.139-.592,4.4,4.4,0,0,1,1.307-.2q3.092,0,3.087,4.122V38.97h4.714v-12.7a2.875,2.875,0,0,1,.3-1.341,2.821,2.821,0,0,1,.8-.957,3.7,3.7,0,0,1,1.134-.592,4.546,4.546,0,0,1,1.351-.2q3.092,0,3.087,4.122V38.97h4.714V26.825a8.848,8.848,0,0,0-1.529-5.562,5.229,5.229,0,0,0-4.364-1.972" transform="translate(-90.809 -9.778)" fill="#202335"/>
    <path id="Path_375" data-name="Path 375" d="M289.82,9.57h-4.226v5.242H282.28V18.6H285.1V29.161a4.9,4.9,0,0,0,1.267,3.614,5,5,0,0,0,3.7,1.267h3.417V30.251h-2.732a.912.912,0,0,1-.912-.912V18.624h3.945V14.831h-3.945Z" transform="translate(-143.085 -4.851)" fill="#202335"/>
    <path id="Path_376" data-name="Path 376" d="M329.1,30.576V29.042a12.742,12.742,0,0,0-.533-3.733,9.1,9.1,0,0,0-1.6-3.077,7.6,7.6,0,0,0-2.727-2.1,9.167,9.167,0,0,0-3.9-.774,9.4,9.4,0,0,0-3.753.72,7.732,7.732,0,0,0-2.8,2.027,9.029,9.029,0,0,0-1.751,3.146,13.141,13.141,0,0,0-.606,4.122,13.112,13.112,0,0,0,.621,4.177,9.019,9.019,0,0,0,1.79,3.166,7.86,7.86,0,0,0,2.835,2.027,9.6,9.6,0,0,0,3.807.72,11.233,11.233,0,0,0,4.734-.942,7.89,7.89,0,0,0,3.22-2.609l-2.544-2.84a8.225,8.225,0,0,1-2,1.869,5.261,5.261,0,0,1-2.895.725,4.543,4.543,0,0,1-3.491-1.257,4.709,4.709,0,0,1-1.179-3.348v-.493Zm-12.772-3.205a4.729,4.729,0,0,1,1.1-3.259,3.767,3.767,0,0,1,2.959-1.252,3.393,3.393,0,0,1,2.84,1.252,5.049,5.049,0,0,1,.986,3.22v.33h-7.89Z" transform="translate(-157.859 -9.811)" fill="#202335"/>
    <path id="Path_377" data-name="Path 377" d="M361.056,19.61l-2.244,8.541H358.7l-2.283-8.541L352.481,7.1H347.51l8.4,25.691h5.518L369.818,7.1H365Z" transform="translate(-176.149 -3.599)" fill="#202335"/>
    <path id="Path_378" data-name="Path 378" d="M432.712,30.561V29.027a12.91,12.91,0,0,0-.533-3.733,9.28,9.28,0,0,0-1.6-3.077,7.6,7.6,0,0,0-2.742-2.115,9.2,9.2,0,0,0-3.905-.774,9.463,9.463,0,0,0-3.753.72,7.752,7.752,0,0,0-2.8,2.027,8.944,8.944,0,0,0-1.746,3.146,13.141,13.141,0,0,0-.607,4.122,13.112,13.112,0,0,0,.621,4.177,9.019,9.019,0,0,0,1.829,3.166,7.841,7.841,0,0,0,2.83,2.027,9.586,9.586,0,0,0,3.812.72,11.208,11.208,0,0,0,4.7-.942,7.85,7.85,0,0,0,3.22-2.609l-2.54-2.84a8.155,8.155,0,0,1-2.007,1.869,5.242,5.242,0,0,1-2.89.725,4.547,4.547,0,0,1-3.5-1.257,4.729,4.729,0,0,1-1.164-3.348v-.493Zm-12.767-3.205A4.749,4.749,0,0,1,421.04,24.1,3.787,3.787,0,0,1,424,22.843a3.393,3.393,0,0,1,2.85,1.252,5.049,5.049,0,0,1,.986,3.22v.33h-7.89Z" transform="translate(-210.373 -9.796)" fill="#202335"/>
    <path id="Path_379" data-name="Path 379" d="M478.788,20.24l-1.908,7.914-1.514,6.588h-.143l-1.81-6.588L471.1,20.24h-4.27l-2.244,7.914-1.765,6.588h-.148l-1.509-6.588-1.953-7.914H454.68l5.3,19.212h5.005l2.426-8.467,1.405-5.227h.108l1.44,5.227,2.466,8.467h5.074l5.567-19.212Z" transform="translate(-230.473 -10.259)" fill="#202335"/>
    <path id="Path_380" data-name="Path 380" d="M258.864,35.189a.986.986,0,0,1-.986-.986V26.16a6.38,6.38,0,0,0-2.027-5.074,8.745,8.745,0,0,0-5.917-1.765,9.31,9.31,0,0,0-4.68,1.026,8.087,8.087,0,0,0-2.835,2.683L244.6,25l.636.567a6.544,6.544,0,0,1,.942-1.075,5.955,5.955,0,0,1,.769-.641,4.517,4.517,0,0,1,2.668-.75,3.614,3.614,0,0,1,2.722.883,3.452,3.452,0,0,1,.853,2.52v1.4h-3.279a10.7,10.7,0,0,0-6.065,1.45,5.051,5.051,0,0,0-2.14,4.438,5.488,5.488,0,0,0,1.578,4.108,4.047,4.047,0,0,0,.725.577,5.671,5.671,0,0,0,2.16.823c.084,0,.173.035.266.044a7.13,7.13,0,0,0,1.312.118,7.269,7.269,0,0,0,1.09-.079h.069a5.976,5.976,0,0,0,2.549-.873l.089-.069a7.446,7.446,0,0,0,2.249-1.972,3.866,3.866,0,0,0,.957,1.657,3.319,3.319,0,0,0,2.466.9h2.618V35.189Zm-5.676-1.928a2.258,2.258,0,0,1-1.1,2.041,4.961,4.961,0,0,1-2.692.7,3.546,3.546,0,0,1-2.155-.567,2.041,2.041,0,0,1-.754-1.741v-.616q0-2.337,3.679-2.342h3.023Z" transform="translate(-122.514 -9.789)" fill="#202335"/>
    <path id="Path_381" data-name="Path 381" d="M160.379,6.39a2.544,2.544,0,1,0,1.8.745,2.549,2.549,0,0,0-1.8-.745" transform="translate(-80.002 -3.239)" fill="#202335"/>
    <rect id="Rectangle_181" data-name="Rectangle 181" width="4.714" height="19.212" transform="translate(196.021 9.981)" fill="#202335"/>
    <path id="Path_382" data-name="Path 382" d="M399.709,6.39a2.544,2.544,0,1,0,1.8.745,2.549,2.549,0,0,0-1.8-.745" transform="translate(-201.316 -3.239)" fill="#202335"/>
  </g>
</svg>
